<?xml version="1.0" encoding="utf-8"?>
<!-- Generator: Adobe Illustrator 16.0.0, SVG Export Plug-In . SVG Version: 6.00 Build 0)  -->
<!DOCTYPE svg PUBLIC "-//W3C//DTD SVG 1.1//EN" "http://www.w3.org/Graphics/SVG/1.1/DTD/svg11.dtd">
<svg version="1.1" id="图层_1" xmlns="http://www.w3.org/2000/svg" xmlns:xlink="http://www.w3.org/1999/xlink" x="0px" y="0px"
	 width="595.28px" height="595.28px" viewBox="0 0 595.28 595.28" enable-background="new 0 0 595.28 595.28" xml:space="preserve">
<g>
	<g>
		<path fill-rule="evenodd" clip-rule="evenodd" fill="#F29523" d="M274.178,303.141c8.782,27.29,28.654,34.629,47.431,30.964
			c25.353-4.917,40.302-29.243,35.407-55.507c-0.184-0.973-0.514-2.526-0.628-3.105c-1.646-8.845,4.243-17.342,13.087-19.002
			c15.142-2.828,18.708,12.045,18.708,12.045c0.373,1.443,0.703,2.913,0.981,4.4c6.88,36.899-17.452,72.384-54.344,79.261
			c-26.937,5.035-53.3-10.24-60.538-48.994"/>
		<path fill-rule="evenodd" clip-rule="evenodd" fill="#326FB7" d="M408.163,294.438c0-1.507-0.056-3.018-0.157-4.499
			c0,0-0.778-15.276-16.186-15.276c-8.997,0-16.346,7.297-16.346,16.29c0,0.59,0.046,2.181,0.046,3.161
			c0,26.72-21.659,48.369-48.369,48.369c-24.211,0-43.282-15.871-47.912-39.002c0.144,0.726-4.07-12.583,1.633-33.728
			c0.7-2.604,1.524-3.417,0.913-4.438c-0.304-0.499-1.629,0.99-1.629,0.99c-11.709,19.012-6.992,42.345-7.198,41.072
			c4.234,25.444,21.94,45.771,48.818,53.016c1.221,0.317,2.431,0.585,3.651,0.831c-1.374,0.059-2.745,0.114-4.139,0.114
			c-39.719,0-71.374-30.559-71.374-70.277c0-25.814,16.045-51.344,36.097-61.584c1.086-0.572,3.91-1.276,4.649-1.105
			c3.475,0.765,5.385,1.403,5.886,5.784c0.7,6.128-2.051,9.778-6.517,14.796c-1.714,1.916-3.059,3.483-3.063,3.495
			c-0.687,1.883,2.689,1.876,2.689,1.876s8.032,0.671,15.897-3.333c7.041-3.598,13.016-8.888,18.378-15.885
			c6.442-8.439,7.185-20.425,6.785-26.651c0-1.474,0.985-2.719,3.449-3.791c6.71-2.923,11.909-4.739,14.553-5.588
			c7.433-2.406,15.933-4.466,21.567-6.894c-2.65-0.471-5.333-1.084-7.372-1.868c-8.379-3.205-10.024-7.27-10.024-7.27l1.318,0.063
			c0,0,7.807,4.154,16.98,4.262c11.955,0.149,16.98-2.565,18.237-3.214c8.745-4.384,13.869-11.67,9.285-20.257
			c-2.66-4.989-10.666-6.285-14.249-6.365c-8.166-0.193-8.529,0.646-8.362-4.376c-0.02,0.414-0.324-20.663-24.276-28.7
			c0.766,0.209-29.799-14.167-75.241,15.506c-8.483,5.544-18.6,13.431-27.636,22.73c-7.515-1.654-18.495-5.212-35.947-0.136
			c-20.524,5.971-26.135,20.543-26.135,20.543s-2.555,7.412-0.55,8.124c4.001,1.433,14.618-7.201,23.907-3.859
			c9.969,3.587,6.436,12.601,6.066,13.351c-8.396,15.446-13.879,34.532-14.242,53.948c-1.099,58.392,45.592,112.532,112.83,113.828
			c14.448,0.268,29.302-2.316,42.01-7.251c2.663-1.033,5.071-2.1,7.276-3.199C389.867,348.363,408.163,323.543,408.163,294.438z
			 M347.266,157.135c0,1.42-1.158,2.572-2.581,2.572c-1.424,0-2.575-1.152-2.575-2.572c0-1.431,1.151-2.593,2.575-2.593
			C346.107,154.542,347.266,155.704,347.266,157.135z M341.125,150.235c1.721,0,3.347,0.401,4.815,1.07
			c-5.343,0.036-9.665,4.267-9.665,9.479c0,5.245,4.365,9.498,9.754,9.498c1.263,0,2.532-0.249,3.657-0.669
			c-2.12,2.318-5.159,3.797-8.562,3.797c-6.396,0-11.589-5.189-11.589-11.587C329.536,155.423,334.729,150.235,341.125,150.235z"/>
	</g>
	<g>
		<g>
			<path fill="#326FB7" d="M138.243,440.051h-15.737v-7.925h15.737v-5.443h-15.737v-7.028h15.737v-5.45h-15.737v-7.872h15.737
				v-5.529h-15.737v-6.177H101.38v6.177H84.171l3.903-6.177H71.61l-9.328,12.508v38.286h75.96V440.051z M101.38,440.051H84.171
				v-7.925h17.209V440.051z M101.38,426.683H84.171v-7.028h17.209V426.683z M101.38,414.204H84.171v-7.872h17.209V414.204z
				 M45.852,395.306H32.5l-10.983,16.467v4.787H8.299v5.45h13.218v21.064l-13.218,3.938v6.236l13.192-3.821v17.435
				c0,0,0.445,4.519-3.511,4.519H8.299v4.561h31.906c0,0,5.601-0.049,5.601-4.934v-29.416h0.046l11.68-3.949v-5.517l-11.68,3.164
				v-13.28h11.68v-5.45h-11.68V395.306z M132.77,458.693l3.049-8.533H62.283v5.478h6.982l-6.982,20.304h21.08l7.047-20.304h23.504
				l-3.102,9.271l-0.049,0.036h0.049v0.089c0,0,1.626-0.184,2.006-0.125c1.515,0.125,3.658,0.736,4.999,2.355
				c3.632,4.535,0.661,8.677,0.661,8.677h19.765C141.606,462.835,134.936,459.399,132.77,458.693z M290.259,418.47
				c-0.108-8.14,0.693-17.896-11.458-22.653c-10.319-4.09-33.65,0.789-40.262,2.264v-3.69H215.08v32.862h75.129
				C290.209,427.252,290.34,426.191,290.259,418.47z M270.641,420.885h-32.103v-14.792c9.671-2.915,23.737-6.412,28.615-1.236
				C272.32,410.396,270.641,420.885,270.641,420.885z M215.08,438.997h25.769v12.498H215.08v6.302h25.769v11.713H215.08v6.199
				h74.331v-6.199h-25.029v-11.713h25.029v-6.302h-25.029v-12.498h25.029v-6.308H215.08V438.997z M209.79,428.835v-6.367h-16.444
				v-19.482l16.444-2.412v-7.001l-57.167,11.016v6.207l17.239-3.105v14.778h-17.239v6.367h10.94l-10.94,46.874h8.644l8.595-38.302
				v38.302h23.485v-38.302l8.536,38.302h8.631l-10.872-46.874H209.79z"/>
		</g>
		<path fill="#326FB7" d="M395.232,406.676h43.783v-5.579H399.31l5.251-7.296l0.134-0.117h-21.452l-13.896,18.757h21.551
			L395.232,406.676z M353.188,395.417h-31.749v6.184h31.749V395.417z M342.286,467.645c0,1.577-0.959,3.141-2.323,3.141h-4.861
			v4.688h23.252c6.675,0,6.714-7.018,6.714-7.018V418.49h-22.781V467.645z M413.761,448.033c0,0,9.236,0.177,13.794-1.642
			c5.176-1.897,8.539-8.723,8.539-8.723l2.179-4.525h-20.788l-7.106,12.512l-12.275-12.21l-0.236-0.069v-9.167h41.247v-5.478
			h-61.505h-3.646v44.666v5.059c0,0,0.04,7.018,6.662,7.018h31.055v-4.688h-11.428c-1.276,0-2.386-1.563-2.386-3.141v-21.832
			l30.49,29.979h12.488l-28.01-27.758H413.761z M304.667,412.339h15.691l-14.366,63.135h21.581l14.265-63.135h24.385v-5.398h-61.556
			V412.339z M451.936,430.265l18.103-3.32v48.65h23.786v-52.943l16.659-3.003v-6.708l-58.548,11.078V430.265z M451.936,409.99
			l58.548-10.634v-6.7l-58.548,11.098V409.99z M516.134,402.54h69.276v-5.415h-69.276V402.54z M516.134,425.341h33.134v42.553
			c0,1.609-0.995,3.121-2.347,3.121h-26.54v4.718h46.842c6.749,0,6.763-6.937,6.763-6.937v-43.455h11.425v-5.471h-69.276V425.341z"
			/>
	</g>
</g>
</svg>
